HIERARCHY
ROOT Hips
{
    OFFSET 0.000000 0.000000 0.000000
    CHANNELS 6 Xposition Yposition Zposition Zrotation Xrotation Yrotation
        JOINT Chest
        {
            OFFSET -0.000000 30.781853 -0.000000
            CHANNELS 3 Zrotation Xrotation Yrotation
            JOINT Neck
            {
                OFFSET -0.000000 22.926966 0.000000
                CHANNELS 3 Zrotation Xrotation Yrotation
                JOINT Head
                {
                    OFFSET -0.000000 10.450000 0.000000
                    CHANNELS 3 Zrotation Xrotation Yrotation
                    End Site
                    {
                        OFFSET -0.000000 16.150003 0.000000
                    }
                }
            }
            JOINT LeftCollar
            {
                OFFSET -0.000000 22.926966 0.000000
                CHANNELS 3 Zrotation Xrotation Yrotation
                JOINT LeftShoulder
                {
                    OFFSET 20.000000 -0.000000 0.000000
                    CHANNELS 3 Zrotation Xrotation Yrotation
                    JOINT LeftElbow
                    {
                        OFFSET 21.288839 0.000000 0.000000
                        CHANNELS 3 Zrotation Xrotation Yrotation
                        JOINT LeftWrist
                        {
                            OFFSET 24.657661 0.000000 0.000000
                            CHANNELS 3 Zrotation Xrotation Yrotation
                            End Site
                            {
                                OFFSET 0.000000 -14.250000 0.000000
                            }
                        }
                    }
                }
            }
            JOINT RightCollar
            {
                OFFSET -0.000000 22.926966 0.000000
                CHANNELS 3 Zrotation Xrotation Yrotation
                JOINT RightShoulder
                {
                    OFFSET -20.000000 0.000000 0.000000
                    CHANNELS 3 Zrotation Xrotation Yrotation
                    JOINT RightElbow
                    {
                        OFFSET -21.288839 0.000000 0.000000
                        CHANNELS 3 Zrotation Xrotation Yrotation
                        JOINT RightWrist
                        {
                            OFFSET -24.657661 0.000000 0.000000
                            CHANNELS 3 Zrotation Xrotation Yrotation
                            End Site
                            {
                                OFFSET -0.000000 -14.250000 0.000000
                            }
                        }
                    }
                }
            }
        }
    JOINT LeftHip
    {
        OFFSET 11.400001 0.000000 0.000000
        CHANNELS 3 Zrotation Xrotation Yrotation
        JOINT LeftKnee
        {
            OFFSET -0.000000 -37.900105 0.000000
            CHANNELS 3 Zrotation Xrotation Yrotation
            JOINT LeftAnkle
            {
                OFFSET -0.000000 -37.426758 0.000000
                CHANNELS 3 Zrotation Xrotation Yrotation
                End Site
                {
                    OFFSET -0.000000 -4.750000 16.150003
                }
            }
        }
    }
    JOINT RightHip
    {
        OFFSET -11.400001 0.000000 0.000000
        CHANNELS 3 Zrotation Xrotation Yrotation
        JOINT RightKnee
        {
            OFFSET -0.000000 -37.900105 0.000000
            CHANNELS 3 Zrotation Xrotation Yrotation
            JOINT RightAnkle
            {
                OFFSET -0.000000 -37.426758 0.000000
                CHANNELS 3 Zrotation Xrotation Yrotation
                End Site
                {
                    OFFSET -0.000000 -4.750000 16.150003
                }
            }
        }
    }
}
MOTION
Frames:    6
Frame Time:    0.010000
54.716743    80.787025    32.034679    1.096120    0.022825    -123.488693    -0.887838    11.075352    -8.439507    0.343274    -0.580650    -7.552863    -1.896413    -4.709154    -7.699319    -17.205805    0.184944    -0.960912    -47.225285    48.309383    -30.284016    8.879979    -6.713000    -74.451660    173.366257    10.598622    -23.316549    20.091894    -0.704186    -3.780253    22.889978    62.821705    44.241531    -12.693446    -7.985389    64.039772    -145.958847    2.818897    45.303909    9.640959    10.933140    -0.304418    1.349153    13.206644    -3.468062    -12.270847    -21.757574    33.990139    -3.691404    -22.121017    4.947132    3.099368    42.864262    -0.875221    4.679363    -17.582270    -13.667078    
54.599655    80.844917    32.029202    0.777562    0.276707    -123.254143    -0.685975    11.594700    -8.719193    -2.346125    -2.330023    -5.732061    -0.135459    -3.388905    -5.687593    -17.503466    -0.154573    3.157505    -46.196438    48.103722    -32.583675    8.948095    -6.829197    -74.666275    174.517273    10.517166    -23.802917    19.270878    -0.407579    -0.863785    21.859913    63.630444    45.231506    -12.432774    -7.706132    64.105583    -146.312378    2.669555    45.331089    9.692374    11.303494    -0.699172    1.325231    13.229677    -3.287994    -12.277475    -21.678797    33.915291    -3.815088    -21.419209    4.653004    3.066694    42.543736    -0.563611    4.698618    -17.568220    -13.874720    
54.574364    80.879684    32.003941    0.726041    0.385731    -123.185280    -0.554374    11.659076    -8.894514    -2.608435    -2.444195    -5.683651    -0.047154    -3.166060    -5.628558    -17.399611    -0.330266    3.354277    -46.177860    48.617199    -32.658562    9.138915    -7.069788    -74.520546    174.516541    10.649805    -24.697716    19.239239    -0.265836    -0.779555    21.492014    63.590034    45.566120    -12.468461    -7.857415    64.101379    -146.067276    2.666913    45.795280    9.844676    11.274915    -0.735089    1.221087    13.427917    -3.267488    -12.292119    -21.614697    33.820419    -3.744157    -21.153440    4.693371    3.084207    42.282375    -0.681435    4.685572    -17.466208    -13.884360    
54.532124    80.922127    31.995817    0.599286    0.515400    -123.082779    -0.463817    11.807991    -9.018578    -2.625915    -2.455474    -5.661770    -0.131532    -3.134055    -5.609157    -17.331316    -0.423331    3.374785    -46.212452    48.843353    -32.670681    9.172025    -6.978845    -74.500595    175.031143    10.856608    -25.218409    19.223333    -0.197086    -0.777884    21.336958    63.560623    45.700481    -12.584978    -7.938145    64.071167    -145.898941    2.636197    45.976986    9.929916    11.380995    -0.876532    1.162179    13.526924    -3.204969    -12.302839    -21.573620    33.752491    -3.751877    -20.809332    4.612443    3.074124    42.059380    -0.639950    4.686818    -17.411985    -13.935601    
54.485607    80.972954    31.987793    0.451031    0.665982    -122.968002    -0.358380    11.982889    -9.151724    -2.634127    -2.463323    -5.654920    -0.222654    -3.095254    -5.603898    -17.257523    -0.467539    3.346172    -46.189354    49.063412    -32.751728    9.131313    -6.981185    -74.491379    175.546051    11.000724    -25.801325    19.214792    -0.157400    -0.796462    21.247553    63.538151    45.752277    -12.645688    -7.971308    64.050911    -145.885635    2.679111    46.159580    10.030451    11.501345    -1.035548    1.089273    13.649287    -3.143232    -12.312832    -21.534277    33.678871    -3.757949    -20.410204    4.519376    3.057739    41.797256    -0.600078    4.690396    -17.345261    -13.979251    
54.437805    81.029694    31.980913    0.293932    0.827518    -122.847313    -0.239491    12.165169    -9.292900    -2.655962    -2.481735    -5.647458    -0.299605    -3.039218    -5.598284    -17.186096    -0.497711    3.304064    -46.116646    49.297707    -32.883556    9.194568    -7.026167    -74.467995    175.843033    11.110703    -26.377905    19.210402    -0.137554    -0.812544    21.184702    63.527416    45.762066    -12.708244    -7.987838    64.019058    -145.865585    2.695586    46.331020    10.145404    11.617377    -1.204685    0.998759    13.800027    -3.090531    -12.318357    -21.500683    33.608078    -3.760379    -19.980089    4.417180    3.032586    41.503025    -0.561527    4.696933    -17.265524    -14.012313    
